<svg width="61" height="61" viewBox="0 0 61 61" fill="none" xmlns="http://www.w3.org/2000/svg">
<g clip-path="url(#clip0_2_495)">
<path d="M37.3994 24.8337L28.2341 33.4905L23.8355 28.9652C23.3479 28.4632 22.5449 28.4518 22.0433 28.9394C21.5413 29.4276 21.5299 30.23 22.0175 30.7321L27.2931 36.1477C27.7833 36.6408 28.5753 36.6577 29.0858 36.1854L39.1667 26.677C39.4115 26.4461 39.5546 26.1273 39.564 25.7911C39.5734 25.455 39.4488 25.1287 39.2174 24.8844C38.7268 24.3744 37.9178 24.3521 37.3994 24.8337Z" fill="black"/>
<path d="M30.5984 11.5111C20.1237 11.5111 11.6064 20.0284 11.6064 30.5031C11.6064 40.9783 20.1237 49.4956 30.5984 49.4956C41.0737 49.4956 49.5909 40.9783 49.5909 30.5031C49.5909 20.0284 41.0737 11.5111 30.5984 11.5111ZM30.5984 46.9531C21.522 46.9531 14.1489 39.5671 14.1489 30.5031C14.1489 21.4391 21.522 14.0536 30.5984 14.0536C39.6838 14.0536 47.0485 21.4183 47.0485 30.5031C47.0485 39.5879 39.6838 46.9531 30.5984 46.9531Z" fill="black"/>
<path d="M56.7349 23.5113L57.1545 15.9728C57.1838 15.4668 56.9087 14.9916 56.4554 14.7651L49.7432 11.3711L46.3491 4.65886C46.1182 4.20946 45.6459 3.93585 45.1414 3.95969L37.59 4.36688L31.2974 0.209557C30.8733 -0.0700149 30.3236 -0.0700149 29.899 0.209557L23.6065 4.36688L16.0684 3.94727C15.5619 3.91748 15.0872 4.19258 14.8608 4.64645L11.4662 11.3586L4.75448 14.7527C4.30459 14.9831 4.03147 15.4554 4.05531 15.9604L4.47442 23.4989L0.317589 29.7915C0.0380173 30.2156 0.0380173 30.7653 0.317589 31.1898L4.462 37.4949L4.0424 45.0334C4.0131 45.5394 4.2877 46.0146 4.74157 46.241L11.4538 49.6351L14.8479 56.3473C15.0783 56.7972 15.5505 57.0703 16.0555 57.0465L23.594 56.6269L29.8866 60.7837C30.3082 61.0722 30.8634 61.0722 31.285 60.7837L37.5776 56.6269L45.1161 57.0465C45.6221 57.0758 46.0968 56.8007 46.3238 56.3473L49.7178 49.6351L56.43 46.241C56.8794 46.0101 57.1531 45.5384 57.1292 45.0334L56.7096 37.4949L60.8664 31.2023C61.146 30.7782 61.146 30.228 60.8664 29.8039L56.7349 23.5113ZM54.3703 36.4525C54.2153 36.68 54.1433 36.9536 54.1672 37.2282L54.5609 44.3595L48.2177 47.5629C47.9759 47.6841 47.7797 47.8807 47.6585 48.1225L44.4546 54.4658L37.3233 54.072C37.0502 54.0621 36.7806 54.1326 36.5477 54.2751L30.5982 58.2035L24.6493 54.2751C24.4427 54.1356 24.1994 54.0601 23.9501 54.0591H23.8865L16.7547 54.4534L13.5513 48.1096C13.4301 47.8678 13.234 47.6716 12.9917 47.5505L6.63551 44.3595L7.02979 37.2282C7.03972 36.9551 6.96871 36.6854 6.82619 36.4525L2.89829 30.5031L6.82619 24.5536C6.98162 24.3267 7.05363 24.0526 7.02979 23.7785L6.63551 16.6467L12.9793 13.4433C13.2211 13.3221 13.4172 13.126 13.5384 12.8841L16.7418 6.54038L23.8736 6.93467C24.1462 6.9441 24.4159 6.87359 24.6493 6.73107L30.5982 2.80317L36.5477 6.73107C36.7751 6.8865 37.0492 6.9585 37.3233 6.93467L44.4546 6.54038L47.6585 12.8841C47.7797 13.126 47.9759 13.3221 48.2177 13.4433L54.5609 16.6467L54.1672 23.7785C54.1572 24.0511 54.2282 24.3207 54.3703 24.5536L58.2987 30.5031L54.3703 36.4525Z" fill="black"/>
</g>
<defs>
<clipPath id="clip0_2_495">
<rect width="61" height="61" fill="white"/>
</clipPath>
</defs>
</svg>
